:FULLY-SPECIFIED
:FORCE-ALL-JOINTS-BE-3DOF
:DEGREES
170
root 6.50952 16.0708 -25.6595 4.02984 29.6344 1.52129
lfemur -25.6107 31.5448 -16.5975
ltibia 41.2333 -0 0
lfoot -7.86822 10.4082 0.0708505
ltoes 14.6279 -0 0
rfemur -19.9416 -2.6111 -5.62039
rtibia 59.5795 -0 0
rfoot 7.39262 -26.126 -0.376627
rtoes 44.1294 -0 0
lowerback 1.16928 -4.96014 -1.26832
upperback -0.0332596 -6.64635 -2.4536
thorax -0.835729 -3.31972 -1.67514
lowerneck -9.45543 -7.38211 -1.62727
upperneck 1.78159 -9.90273 5.28045
head 2.59465 -4.771 1.45538
lclavicle -9.8808e-14 2.87197e-15 3.80438e-31
lhumerus -50.0746 -41.5329 115.945
lradius 52.4593 -0 0
lwrist 15.5796 0 0
lhand 37.5097 28.8656 -0.0401169
lfingers 7.12502 -0 0
lthumb 60.3117 42.3928 -0.0198342
rclavicle -9.8808e-14 2.87197e-15 3.80438e-31
rhumerus -48.6871 -13.0006 -79.308
rradius 90.0873 -0 0
rwrist -4.83738 0 0
rhand -41.4258 -52.026 0.787389
rfingers 7.12502 -0 0
rthumb -14.4748 -81.3546 0.887054
171
root 6.45494 16.0492 -25.6369 4.30222 29.0933 1.64563
lfemur -24.52 30.6585 -15.4595
ltibia 40.1399 -0 0
lfoot -8.02499 9.4492 0.162342
ltoes 16.1246 -0 0
rfemur -19.0184 -2.09404 -6.10153
rtibia 57.964 -0 0
rfoot 5.99165 -26.0545 -0.773028
rtoes 45.683 -0 0
lowerback 0.774355 -4.86303 -1.14613
upperback -0.113958 -6.51 -2.61177
thorax -0.727409 -3.25352 -1.93588
lowerneck -9.53402 -7.29206 -1.51008
upperneck 1.88516 -9.7995 5.25552
head 2.63651 -4.71603 1.43324
lclavicle -9.71332e-14 2.44826e-15 8.88949e-31
lhumerus -50.5253 -41.6442 116.263
lradius 52.6263 -0 0
lwrist 15.8354 0 0
lhand 37.893 29.2343 -0.0739549
lfingers 7.12502 -0 0
lthumb 60.6471 42.4612 -0.0370146
rclavicle -9.71332e-14 2.44826e-15 8.88949e-31
rhumerus -49.1084 -10.7735 -78.9648
rradius 91.3322 -0 0
rwrist -5.27405 0 0
rhand -39.0086 -50.5386 1.741
rfingers 7.12502 -0 0
rthumb -12.422 -80.1813 1.96131
172
root 6.39662 16.0268 -25.6137 4.55278 28.4023 1.78583
lfemur -23.2125 29.5157 -14.1701
ltibia 38.8411 -0 0
lfoot -8.26443 8.23942 0.269284
ltoes 17.8089 -0 0
rfemur -18.2751 -1.78137 -6.53114
rtibia 56.4532 -0 0
rfoot 4.45153 -25.6507 -1.17444
rtoes 47.0224 -0 0
lowerback 0.393578 -4.75755 -1.04813
upperback -0.182653 -6.36214 -2.79024
thorax -0.611471 -3.18178 -2.20246
lowerneck -9.64217 -7.15853 -1.37544
upperneck 1.99405 -9.64046 5.2277
head 2.68282 -4.63271 1.41008
lclavicle -9.38433e-14 1.92409e-15 1.48592e-30
lhumerus -50.9273 -41.7249 116.462
lradius 52.7797 -0 0
lwrist 16.0833 0 0
lhand 38.2549 29.5563 -0.101548
lfingers 7.12502 -0 0
lthumb 60.9615 42.4845 -0.0513217
rclavicle -9.38433e-14 1.92409e-15 1.48592e-30
rhumerus -49.6801 -8.1694 -78.595
rradius 92.8576 -0 0
rwrist -5.79076 0 0
rhand -36.0442 -48.6713 2.79066
rfingers 7.12502 -0 0
rthumb -9.9679 -78.9102 3.18157
173
root 6.33502 16.0038 -25.5902 4.78158 27.5766 1.93869
lfemur -21.7373 28.1324 -12.7741
ltibia 37.3608 -0 0
lfoot -8.58158 6.80803 0.385814
ltoes 19.6568 -0 0
rfemur -17.6966 -1.65823 -6.9173
rtibia 55.0434 -0 0
rfoot 2.78716 -24.9427 -1.56531
rtoes 48.1644 -0 0
lowerback 0.02718 -4.64489 -0.972376
upperback -0.24044 -6.20418 -2.9865
thorax -0.489293 -3.10503 -2.47348
lowerneck -9.77627 -6.98548 -1.22501
upperneck 2.10728 -9.43089 5.1972
head 2.7329 -4.52375 1.38592
lclavicle -8.91091e-14 1.31415e-15 2.12729e-30
lhumerus -51.284 -41.7791 116.553
lradius 52.9205 -0 0
lwrist 16.3242 0 0
lhand 38.5957 29.8346 -0.123012
lfingers 7.12502 -0 0
lthumb 61.2553 42.4672 -0.0626393
rclavicle -8.91091e-14 1.31415e-15 2.12729e-30
rhumerus -50.3688 -5.23598 -78.21
rradius 94.6241 -0 0
rwrist -6.37877 0 0
rhand -32.5878 -46.4487 3.86232
rfingers 7.12502 -0 0
rthumb -7.14601 -77.5071 4.50439
